<?xml version="1.0" standalone="no"?>
<!DOCTYPE svg PUBLIC "-//W3C//DTD SVG 20010904//EN"
 "http://www.w3.org/TR/2001/REC-SVG-20010904/DTD/svg10.dtd">
<svg version="1.0" xmlns="http://www.w3.org/2000/svg"
 width="966.000000pt" height="966.000000pt" viewBox="0 0 966.000000 966.000000"
 preserveAspectRatio="xMidYMid meet">
<metadata>
Created by potrace 1.14, written by Peter Selinger 2001-2017
</metadata>
<g transform="translate(0.000000,966.000000) scale(0.100000,-0.100000)"
fill="#000000" stroke="none">
<path d="M4505 9613 c-910 -58 -1809 -384 -2540 -923 -1041 -766 -1730 -1910
-1915 -3175 -39 -269 -45 -366 -45 -710 1 -355 11 -500 56 -775 200 -1226 879
-2338 1884 -3086 467 -347 1019 -617 1575 -770 258 -71 539 -124 835 -156 185
-20 770 -17 960 5 787 92 1483 340 2120 755 349 227 684 514 958 821 533 598
898 1289 1087 2055 108 439 147 795 137 1261 -6 283 -20 438 -63 695 -149 896
-547 1722 -1161 2411 -129 144 -353 362 -488 474 -790 657 -1733 1039 -2755
1115 -123 9 -522 11 -645 3z m555 -93 c1441 -89 2743 -799 3586 -1956 693
-952 997 -2169 843 -3374 -173 -1359 -944 -2571 -2126 -3344 -508 -331 -1083
-559 -1698 -671 -454 -83 -996 -98 -1455 -39 -1025 130 -1980 597 -2710 1324
-783 779 -1257 1763 -1375 2850 -35 317 -30 784 11 1095 109 839 435 1623 947
2280 302 387 683 751 1057 1007 859 591 1914 890 2920 828z"/>
<path d="M4880 9410 c-14 -4 -112 -8 -217 -9 -106 -1 -193 -5 -193 -9 0 -5 6
-15 13 -24 10 -14 26 -15 112 -7 55 4 177 8 270 9 l170 1 -40 24 c-41 25 -71
29 -115 15z"/>
<path d="M4305 9370 c-27 -4 -62 -13 -77 -20 -22 -10 -39 -10 -88 0 -60 13
-78 10 -66 -9 12 -19 134 -51 159 -42 12 5 61 16 107 26 47 9 87 19 89 21 2 2
-2 10 -9 19 -13 16 -35 17 -115 5z"/>
<path d="M4645 9310 c-283 -24 -498 -80 -695 -181 -166 -85 -281 -200 -311
-313 -18 -65 -6 -167 25 -220 l27 -45 35 17 c33 15 36 15 45 0 5 -9 23 -19 39
-23 39 -9 40 -38 0 -75 l-29 -27 25 -12 c28 -12 44 -7 44 13 0 14 30 26 68 26
33 0 26 -41 -10 -58 -35 -17 -35 -23 1 -44 35 -19 41 -15 41 29 0 41 20 52 55
29 28 -18 34 -63 13 -85 -17 -16 6 -34 81 -62 123 -46 413 -110 428 -95 10 10
-64 36 -101 36 -58 0 -94 67 -66 120 7 12 26 21 58 26 87 13 142 45 121 70
-12 14 8 25 122 68 46 18 47 18 98 -8 46 -24 52 -25 58 -10 3 9 1 30 -5 47
-13 34 -8 47 17 47 10 0 39 7 65 16 52 18 89 10 122 -27 17 -19 16 -20 -14
-31 -37 -14 -40 -24 -13 -33 12 -3 40 4 69 19 27 14 61 26 77 28 26 3 29 -1
51 -62 13 -36 23 -87 24 -113 0 -66 12 -83 70 -102 28 -9 55 -25 60 -36 12
-22 39 -19 145 19 164 58 333 160 419 252 73 79 100 149 94 245 -6 91 -26 129
-86 159 -50 25 -84 56 -63 56 6 0 23 -7 36 -16 44 -29 26 3 -31 55 -122 112
-303 191 -454 199 -80 4 -87 6 -120 38 -33 31 -42 34 -150 48 -151 20 -361 27
-485 16z m677 -120 c24 0 48 -16 48 -32 0 -4 -16 -8 -35 -8 -19 0 -35 4 -35 9
0 5 -9 13 -20 16 -11 3 -20 13 -20 21 0 11 4 12 19 4 11 -5 30 -10 43 -10z
m18 -75 c0 -19 -30 -19 -56 0 -18 13 -17 14 19 15 26 0 37 -4 37 -15z m272
-442 c28 -25 22 -35 -17 -27 -27 5 -41 2 -55 -11 -18 -16 -20 -17 -26 -1 -9
23 23 56 54 56 14 0 34 -7 44 -17z m-1797 -46 c25 -19 6 -29 -56 -29 -55 1
-69 6 -69 28 0 19 99 19 125 1z m1953 -9 c16 -16 15 -38 -1 -38 -7 0 -23 7
-36 16 -18 13 -20 18 -10 25 19 12 33 11 47 -3z m-68 -39 c34 -32 40 -43 29
-50 -19 -12 -33 -11 -47 4 -7 6 -35 12 -61 12 -34 0 -55 6 -70 19 -29 26 -27
34 12 45 65 19 90 13 137 -30z m-1770 11 c0 -13 -7 -20 -19 -20 -27 0 -35 17
-14 29 26 15 33 13 33 -9z m128 -29 c3 -30 -11 -61 -27 -61 -4 0 -14 14 -23
32 -14 30 -14 33 6 50 28 23 40 18 44 -21z m491 23 c31 -9 62 -18 70 -20 32
-9 -19 -50 -113 -91 -54 -23 -111 -54 -127 -68 -17 -14 -37 -25 -45 -25 -8 0
-29 -7 -45 -16 -28 -14 -33 -14 -55 1 -23 15 -25 15 -41 -20 -20 -42 -46 -52
-79 -30 -43 28 -26 47 70 82 89 31 110 46 101 71 -3 7 4 29 15 50 11 20 20 41
20 47 0 26 27 35 99 35 41 0 99 -7 130 -16z m-281 -50 c-13 -27 -138 -93 -138
-73 0 41 64 108 112 118 39 8 46 -5 26 -45z m-168 -29 c0 -18 -5 -25 -20 -25
-23 0 -24 4 -10 31 15 27 30 24 30 -6z"/>
<path d="M3910 9289 c-14 -6 -44 -10 -67 -11 -25 0 -47 -6 -54 -14 -7 -9 -26
-23 -43 -32 l-31 -16 110 -12 c99 -10 116 -9 170 8 33 10 76 27 95 37 l34 19
-39 11 c-59 18 -146 23 -175 10z"/>
<path d="M3368 9248 c-16 -5 -28 -14 -28 -19 0 -17 47 -9 65 11 21 23 9 25
-37 8z"/>
<path d="M3485 9151 c-38 -15 -83 -33 -98 -39 -16 -7 -42 -12 -59 -12 -17 0
-39 -7 -48 -15 -15 -13 -20 -13 -50 1 l-33 17 39 14 c22 8 57 21 79 28 37 12
38 14 12 14 -84 2 -309 -83 -382 -144 -38 -32 -34 -32 147 -1 187 32 226 36
460 45 194 7 197 7 244 36 26 17 49 35 51 41 4 11 -104 29 -227 38 -54 4 -77
0 -135 -23z"/>
<path d="M5842 9095 c21 -23 38 -29 82 -33 77 -6 108 3 104 31 -4 26 -32 34
-64 17 -23 -13 -89 -10 -129 5 -17 6 -15 3 7 -20z"/>
<path d="M6253 9083 c-20 -7 -15 -19 13 -31 29 -14 74 -6 74 13 0 21 -53 32
-87 18z"/>
<path d="M2845 9036 c-115 -44 -379 -186 -358 -193 34 -12 319 121 388 182 22
19 38 34 35 34 -3 0 -32 -10 -65 -23z"/>
<path d="M6094 9011 c3 -4 40 -11 83 -14 43 -3 113 -18 156 -32 101 -33 167
-33 167 0 0 20 -47 32 -180 44 -149 13 -233 14 -226 2z"/>
<path d="M5980 8964 l42 -46 77 -3 c42 -2 99 -11 126 -19 65 -20 73 -20 44 3
-39 30 -84 50 -129 57 -23 4 -54 17 -70 30 -21 19 -40 24 -80 24 l-53 0 43
-46z"/>
<path d="M3406 8965 c7 -19 14 -37 14 -40 0 -3 -19 -15 -42 -26 l-43 -20 50 6
c224 27 219 26 248 53 65 61 63 62 -97 62 l-145 0 15 -35z"/>
<path d="M3189 8975 c-29 -16 -54 -61 -38 -71 19 -12 54 5 94 46 l39 40 -34 0
c-19 -1 -47 -7 -61 -15z"/>
<path d="M2960 8938 c-33 -9 -34 -11 -15 -24 25 -19 85 0 85 27 0 11 -25 10
-70 -3z"/>
<path d="M3452 8839 c-148 -22 -189 -42 -243 -118 -22 -30 -38 -56 -36 -57 5
-5 389 94 398 103 12 12 23 93 13 92 -5 -1 -64 -10 -132 -20z"/>
<path d="M6160 8851 c0 -12 69 -35 78 -26 4 4 -2 13 -12 21 -22 16 -66 19 -66
5z"/>
<path d="M2549 8811 c-160 -52 -400 -184 -578 -321 -120 -91 -297 -285 -206
-226 163 107 451 257 647 337 59 24 108 49 108 55 0 21 -25 34 -67 34 -24 0
-43 4 -43 8 0 24 42 44 100 48 34 3 72 12 85 20 22 14 52 60 44 68 -2 2 -43
-8 -90 -23z"/>
<path d="M6044 8824 c3 -9 6 -21 6 -27 1 -28 23 -39 131 -66 63 -16 194 -54
291 -85 97 -31 182 -56 188 -56 6 0 10 8 8 17 -2 12 -18 20 -48 26 -35 7 -59
23 -112 73 -38 35 -90 75 -118 89 -57 29 -79 33 -60 10 10 -13 9 -15 -8 -15
-12 0 -32 -5 -46 -11 -20 -9 -33 -8 -66 5 -22 9 -52 16 -66 16 -14 0 -37 9
-51 20 -31 24 -58 27 -49 4z"/>
<path d="M3405 8665 c-88 -23 -180 -48 -204 -55 l-45 -12 50 -27 49 -26 0 -52
-1 -51 31 15 c47 24 68 45 53 54 -9 6 -5 16 15 37 25 26 39 31 102 37 40 3 82
13 92 20 13 10 22 10 31 3 7 -6 14 -9 17 -7 5 6 -15 92 -24 100 -3 4 -78 -12
-166 -36z"/>
<path d="M6042 8655 c-7 -25 -12 -49 -12 -54 0 -5 81 -43 180 -86 161 -69 181
-76 195 -62 17 17 41 23 137 32 84 8 102 3 128 -39 28 -47 25 -60 -17 -81
l-38 -19 63 -7 c35 -5 75 -15 88 -24 27 -17 75 -20 90 -5 13 13 -76 106 -126
133 -25 14 -30 21 -22 29 7 7 12 15 12 19 0 18 -73 50 -136 58 -39 6 -73 16
-79 25 -6 8 -39 24 -73 35 -71 24 -338 91 -362 91 -10 0 -20 -16 -28 -45z"/>
<path d="M2563 8602 c-14 -9 -36 -62 -25 -62 10 0 62 53 62 63 0 9 -22 9 -37
-1z"/>
<path d="M2370 8527 c-143 -62 -317 -152 -489 -252 -229 -134 -283 -196 -337
-391 -43 -160 -43 -160 104 -41 192 155 466 338 634 423 27 14 73 50 103 81
48 51 54 62 70 135 9 44 15 81 13 83 -2 2 -46 -15 -98 -38z"/>
<path d="M3576 8528 c-9 -12 -16 -28 -16 -35 0 -9 -17 -13 -52 -13 -29 -1 -63
-6 -76 -13 -21 -12 -18 -14 38 -26 32 -7 67 -11 76 -7 10 4 28 -4 46 -19 32
-27 48 -27 100 5 l29 17 -29 25 c-17 14 -37 39 -46 56 -19 38 -48 42 -70 10z"/>
<path d="M5957 8489 c-21 -28 -37 -52 -35 -54 2 -2 355 -220 392 -242 4 -3 5
10 0 28 -4 19 -6 66 -6 104 2 80 0 86 -47 110 -55 28 -243 105 -255 104 -6 0
-28 -23 -49 -50z"/>
<path d="M3284 8401 c-46 -21 -54 -31 -63 -75 -5 -23 -13 -32 -31 -35 -24 -3
-40 -17 -40 -34 0 -9 26 -20 103 -43 53 -16 60 -16 74 -1 14 14 13 17 -15 31
-17 9 -40 16 -52 16 -11 0 -20 4 -20 8 0 12 56 98 69 106 15 9 34 46 24 46 -4
0 -27 -9 -49 -19z"/>
<path d="M3655 8341 c-136 -81 -141 -85 -170 -135 -24 -41 -28 -44 -63 -39
-26 3 -47 -2 -69 -16 -45 -28 -43 -54 7 -74 31 -12 44 -25 56 -54 9 -21 17
-39 19 -41 2 -2 34 14 73 35 69 38 69 38 64 75 -4 35 -2 38 44 67 26 17 54 31
60 31 7 0 40 25 72 55 64 59 76 64 104 39 14 -14 20 -14 33 -4 8 7 15 16 15
21 0 8 -108 85 -132 94 -7 3 -58 -22 -113 -54z m104 -15 l22 -24 -33 -22 c-18
-13 -46 -35 -63 -50 -32 -29 -80 -46 -89 -31 -5 7 120 146 135 150 3 0 16 -10
28 -23z m-233 -212 c-3 -9 -6 -27 -6 -40 0 -27 -25 -33 -53 -11 -28 21 -24 39
13 52 47 18 53 18 46 -1z"/>
<path d="M5788 8349 l-67 -50 82 -72 c180 -158 427 -405 588 -588 l94 -107 57
31 57 31 -20 28 c-33 45 -66 137 -83 227 -20 105 -44 157 -92 202 -47 44 -522
349 -542 349 -4 0 -37 -23 -74 -51z"/>
<path d="M3916 8235 l-39 -35 57 0 c75 0 98 -12 90 -48 -5 -26 -5 -26 10 -8
15 18 16 18 42 1 27 -18 27 -18 55 16 15 19 25 37 21 40 -7 6 -184 69 -192 69
-3 -1 -23 -16 -44 -35z"/>
<path d="M5565 8234 c-44 -18 -83 -35 -87 -36 -4 -2 50 -82 120 -178 70 -96
143 -200 162 -230 18 -30 49 -72 67 -93 18 -20 33 -47 33 -60 0 -21 126 -256
151 -282 11 -11 47 1 267 87 83 33 152 64 152 67 0 13 -180 212 -324 359 -163
166 -419 396 -444 399 -9 1 -53 -14 -97 -33z"/>
<path d="M3766 8210 c-61 -24 -66 -29 -76 -74 l-8 -36 47 39 c46 39 98 91 90
91 -2 -1 -26 -10 -53 -20z"/>
<path d="M2217 8171 c-201 -113 -520 -338 -638 -450 l-62 -59 7 -64 c6 -67 26
-151 46 -203 l12 -30 18 51 c36 103 78 164 112 164 17 0 18 -5 12 -45 -5 -38
-4 -45 10 -45 9 0 16 3 16 8 0 4 25 35 55 70 39 45 59 78 71 120 29 100 43
126 85 152 22 14 88 74 146 133 83 86 102 111 93 122 -9 11 1 22 48 54 53 35
85 71 64 71 -4 0 -46 -22 -95 -49z"/>
<path d="M4161 8113 c-58 -75 -60 -54 16 -169 31 -47 35 -61 42 -149 6 -94 8
-98 40 -127 19 -17 30 -35 27 -44 -8 -20 -98 -76 -108 -66 -5 5 -18 28 -31 53
-15 29 -29 45 -44 47 -22 3 -23 0 -23 -52 0 -45 4 -57 20 -66 24 -13 25 -30 4
-90 -32 -92 -66 -101 -149 -40 -53 39 -64 51 -108 119 -12 19 -27 36 -33 38
-7 2 -26 -21 -43 -51 -36 -64 -37 -68 -15 -59 20 8 34 -13 34 -53 0 -33 26
-64 53 -64 12 0 17 -9 17 -29 l0 -29 140 -27 c77 -14 149 -25 161 -23 19 3 30
30 90 228 74 247 138 425 205 567 42 91 42 93 21 97 -12 3 -74 16 -137 30 -63
15 -118 26 -121 26 -4 0 -30 -30 -58 -67z"/>
<path d="M5374 8173 c-19 -4 -21 -9 -17 -44 5 -36 4 -39 -18 -39 -72 -1 -63
-44 19 -89 75 -42 79 -64 13 -69 -33 -2 -52 2 -72 17 -39 29 -62 28 -54 -1 23
-77 45 -89 122 -68 24 7 46 10 50 6 3 -3 -22 -42 -56 -87 l-63 -81 72 -236
c39 -131 73 -243 76 -250 2 -7 12 -11 21 -9 10 3 41 8 68 12 64 8 368 73 400
85 l24 9 -59 108 c-32 59 -65 112 -74 118 -11 7 -32 1 -78 -23 -82 -42 -116
-42 -131 -2 -7 17 -19 30 -29 30 -9 0 -20 5 -23 11 -4 5 -18 14 -31 19 -26 10
-31 37 -11 64 12 17 14 17 44 0 30 -18 32 -17 94 11 73 32 82 41 67 69 -40 77
-309 446 -323 444 -5 0 -20 -3 -31 -5z"/>
<path d="M6607 8164 c-18 -18 -3 -45 42 -77 41 -30 52 -44 65 -89 13 -45 28
-66 85 -121 38 -37 72 -67 75 -67 3 0 21 14 41 31 l35 31 -42 28 c-56 35 -150
135 -176 185 -11 22 -29 48 -39 57 -22 20 -74 33 -86 22z"/>
<path d="M4020 8112 c0 -17 29 -34 47 -28 9 4 13 10 7 15 -15 14 -54 23 -54
13z"/>
<path d="M4497 7982 c-31 -64 -79 -180 -107 -256 -63 -172 -161 -499 -152
-508 4 -3 93 -11 197 -17 105 -6 225 -13 268 -17 48 -3 77 -2 77 5 0 5 -24 21
-54 36 -68 33 -73 39 -125 154 -82 180 -76 304 19 367 21 14 41 31 43 39 3 7
0 37 -6 66 -12 51 -14 54 -50 60 -50 8 -55 15 -34 50 21 38 21 47 -1 98 l-19
41 -56 -118z"/>
<path d="M3692 8035 c-31 -29 -35 -36 -22 -45 8 -6 31 -8 50 -5 74 11 73 11
83 -22 15 -50 1 -79 -61 -128 -63 -49 -90 -55 -117 -25 -24 26 -76 35 -111 18
-15 -7 -42 -33 -59 -58 -18 -25 -41 -46 -53 -48 -19 -3 -217 -210 -209 -218 4
-5 341 -134 349 -134 4 0 31 29 59 65 44 56 53 63 70 55 17 -9 22 -4 46 45 23
47 25 59 15 75 -6 11 -12 23 -12 28 0 11 60 45 68 38 6 -6 124 170 157 234 25
48 8 65 -82 85 -57 13 -84 25 -105 46 l-29 28 -37 -34z m-101 -321 c41 -89 47
-124 23 -124 -10 0 -35 12 -55 26 -36 24 -38 25 -68 9 l-31 -16 0 31 c0 20 -5
30 -15 30 -8 0 -15 2 -15 4 0 11 106 106 118 106 7 0 27 -30 43 -66z"/>
<path d="M7007 8023 c-11 -10 -8 -53 3 -53 10 0 30 32 30 49 0 12 -23 15 -33
4z"/>
<path d="M1445 7972 c-140 -94 -344 -321 -468 -522 -69 -112 -143 -274 -172
-377 -44 -154 -35 -154 85 -7 147 181 294 347 446 504 l131 135 7 61 c4 34 17
105 30 158 13 53 20 96 17 96 -3 0 -37 -22 -76 -48z"/>
<path d="M7016 7872 c-36 -46 -39 -54 -42 -129 l-4 -80 119 -112 119 -111 10
30 c7 19 20 32 37 36 25 6 26 10 20 43 -12 64 -36 100 -97 145 -62 46 -62 53
-4 66 l31 6 -45 27 c-57 33 -97 75 -102 105 -3 21 -7 18 -42 -26z"/>
<path d="M3916 7763 c-19 -32 -31 -59 -26 -61 17 -6 79 30 85 48 7 22 -4 70
-15 70 -5 0 -24 -26 -44 -57z"/>
<path d="M3220 7675 c-25 -13 -55 -24 -67 -25 -25 0 -83 -46 -83 -66 0 -7 17
-22 38 -33 l37 -19 68 79 c86 100 87 107 7 64z"/>
<path d="M5203 7654 c-31 -22 -55 -46 -62 -64 -6 -18 -22 -35 -38 -42 -35 -15
-73 -48 -73 -64 0 -15 -90 -110 -110 -116 -13 -4 -13 -11 -2 -51 17 -64 15
-97 -5 -120 -18 -20 -17 -20 127 -14 151 6 340 25 352 36 5 5 -101 372 -133
458 -2 7 -23 -2 -56 -23z"/>
<path d="M6763 7608 c4 -18 9 -48 13 -65 5 -25 2 -34 -10 -39 -24 -9 -61 3
-93 30 l-28 24 -58 -31 c-32 -18 -55 -37 -53 -44 3 -6 78 -109 167 -227 128
-172 166 -216 184 -216 19 0 27 -10 41 -47 44 -121 75 -173 61 -103 -4 16 0
48 9 72 12 32 14 62 9 121 -5 66 -4 82 11 98 14 16 15 24 5 65 -19 74 -46 117
-105 168 -57 48 -69 79 -47 115 7 11 14 7 30 -20 12 -19 21 -37 21 -41 0 -4
10 -8 22 -10 16 -2 24 -12 29 -37 4 -18 13 -37 21 -42 18 -12 75 -11 83 1 3 6
24 10 46 10 21 0 39 4 39 8 0 4 -16 23 -35 42 -34 33 -35 33 -50 14 -8 -10
-15 -25 -15 -32 0 -21 -18 -4 -55 53 -23 36 -46 59 -69 69 -19 8 -58 33 -86
55 -29 23 -61 41 -72 41 -17 0 -19 -5 -15 -32z"/>
<path d="M1243 7386 c-236 -247 -282 -298 -375 -414 -90 -113 -102 -142 -94
-225 4 -39 14 -102 23 -141 17 -77 70 -223 83 -231 10 -6 91 115 180 270 35
61 83 138 107 172 25 36 43 73 43 89 0 15 21 65 48 112 38 69 68 105 159 191
62 58 113 114 113 123 0 10 -11 61 -25 114 -14 53 -25 111 -25 130 0 18 -3 35
-7 37 -5 3 -108 -99 -230 -227z"/>
<path d="M8002 7538 c2 -57 8 -81 22 -97 25 -28 44 -26 52 4 7 30 -5 64 -47
125 l-30 45 3 -77z"/>
<path d="M2996 7518 c-9 -12 -13 -31 -10 -42 3 -13 -7 -39 -25 -68 -16 -25
-27 -49 -24 -52 4 -3 19 -6 34 -6 21 0 38 14 83 70 l56 69 -43 26 c-53 30 -52
30 -71 3z"/>
<path d="M3134 7433 c-15 -15 -45 -52 -67 -81 -45 -59 -45 -71 -4 -164 21 -47
33 -60 76 -83 l51 -28 -25 -27 c-16 -17 -29 -47 -36 -81 -5 -30 -12 -66 -15
-80 -8 -37 13 -107 37 -120 17 -8 27 -6 54 12 31 22 34 27 40 99 4 42 10 82
14 88 4 6 52 31 106 55 l100 45 15 72 c13 66 13 75 -3 101 -16 29 -16 30 11
40 15 5 35 13 46 17 13 6 -28 26 -160 79 -99 40 -187 75 -196 78 -12 5 -26 -3
-44 -22z"/>
<path d="M6365 7419 c-49 -21 -143 -57 -207 -80 l-117 -41 15 -36 c42 -103
428 -968 434 -975 13 -15 366 110 549 194 l75 35 -45 44 c-67 66 -71 68 -127
67 -37 -2 -56 3 -69 16 -24 23 -10 46 46 73 l43 21 -36 31 c-43 37 -44 42 -11
42 14 0 25 3 25 6 0 11 -41 74 -48 74 -4 0 -26 -23 -50 -50 -24 -28 -52 -50
-63 -50 -16 0 -19 7 -19 50 0 38 -4 52 -19 59 -14 8 -22 7 -32 -5 -22 -26 -30
1 -13 48 17 52 15 60 -40 135 -30 41 -33 42 -86 43 -51 0 -59 3 -92 38 -43 45
-54 65 -63 118 -6 37 -3 44 17 58 32 23 38 20 38 -14 0 -36 12 -38 33 -7 14
22 15 22 36 3 15 -14 21 -31 21 -62 0 -24 4 -45 8 -48 4 -2 36 -11 70 -19 l61
-14 -30 42 c-82 114 -186 240 -199 241 -8 1 -55 -15 -105 -37z m163 -335 c12
-8 22 -23 22 -33 0 -10 13 -45 30 -77 16 -32 30 -66 30 -74 -1 -18 -78 -86
-114 -100 -39 -14 -42 2 -20 108 4 18 0 22 -21 22 -32 0 -43 25 -21 49 20 22
20 40 1 65 -22 29 -18 39 10 32 18 -5 25 -2 25 9 0 19 29 19 58 -1z"/>
<path d="M8154 7450 c-25 -10 -89 -168 -80 -196 10 -27 173 -200 181 -192 4 4
0 39 -10 78 -10 41 -14 75 -9 80 5 5 27 10 49 12 40 3 40 3 43 48 5 70 -7 126
-33 154 -20 21 -33 26 -72 25 -26 0 -57 -4 -69 -9z"/>
<path d="M7980 7345 c41 -42 48 -43 56 -9 8 32 -7 44 -55 44 l-35 0 34 -35z"/>
<path d="M5890 7253 c-71 -19 -215 -49 -389 -79 -30 -5 -33 -8 -28 -32 37
-172 227 -1026 229 -1028 6 -6 345 55 482 86 175 40 236 58 236 70 0 17 -158
407 -236 583 -79 177 -190 408 -202 418 -4 3 -45 -5 -92 -18z"/>
<path d="M3850 7220 c0 -5 -13 -11 -30 -15 -16 -4 -33 -11 -36 -17 -21 -33 99
-38 166 -6 l45 21 -35 7 c-70 15 -110 19 -110 10z"/>
<path d="M4069 7168 c-18 -33 -19 -110 -2 -136 13 -21 13 -26 -1 -41 -9 -10
-16 -25 -16 -34 0 -18 41 -50 51 -39 6 7 70 255 66 258 -1 1 -21 4 -45 7 -35
4 -44 2 -53 -15z"/>
<path d="M8050 7178 c0 -24 117 -177 144 -188 18 -6 25 -18 28 -47 4 -32 0
-43 -28 -76 -40 -44 -41 -49 -13 -94 12 -18 21 -49 22 -69 1 -24 5 -33 14 -29
7 3 20 8 28 11 10 4 16 -3 21 -21 5 -22 2 -32 -17 -46 -16 -13 -19 -19 -9 -19
27 0 70 -44 76 -78 l7 -34 -51 26 c-36 18 -54 34 -58 51 -3 14 -13 25 -22 25
-29 0 -150 79 -189 124 -37 43 -42 45 -138 64 -55 11 -101 19 -102 18 -4 -4
66 -102 85 -120 27 -24 88 -45 133 -46 20 0 42 -7 49 -15 11 -13 7 -15 -26
-15 l-38 0 36 -33 c20 -19 39 -44 42 -58 10 -50 12 -89 4 -89 -4 0 -24 24 -43
54 -19 30 -40 58 -47 62 -18 12 -3 -20 44 -89 23 -34 99 -159 169 -277 91
-154 134 -217 151 -224 34 -12 136 11 148 34 7 14 3 32 -21 77 -25 47 -30 66
-26 102 6 56 24 73 97 88 33 6 86 26 116 44 45 25 55 36 52 53 -3 11 -58 99
-122 194 -110 161 -119 172 -135 158 -35 -32 -66 -16 -141 75 l-50 60 0 74 0
74 -49 58 c-104 122 -140 158 -141 141z"/>
<path d="M4182 7028 c-18 -73 -32 -138 -32 -145 0 -6 20 -23 45 -37 58 -34 58
-52 0 -60 -59 -8 -85 -22 -85 -46 0 -25 15 -25 47 0 36 28 70 25 104 -9 24
-25 29 -38 29 -78 0 -28 -7 -58 -16 -71 -14 -20 -21 -22 -59 -16 -52 7 -82 -1
-90 -25 -3 -10 -18 -21 -34 -24 -31 -7 -46 -34 -56 -107 -3 -25 -17 -103 -31
-174 -14 -71 -24 -130 -22 -131 16 -15 763 -63 794 -51 12 5 14 78 12 538 l-3
533 -165 7 c-90 4 -209 11 -263 17 -157 17 -138 31 -175 -121z m74 -517 c-9
-16 -27 -43 -42 -60 -32 -38 -28 -45 14 -29 85 32 211 -112 155 -175 -11 -12
-24 -34 -31 -49 l-11 -28 -33 19 c-18 11 -60 26 -93 35 -37 9 -65 23 -74 36
-10 14 -24 20 -52 20 -21 0 -41 4 -44 10 -10 16 14 49 55 75 25 16 40 34 45
54 8 38 39 78 79 102 42 26 49 24 32 -10z"/>
<path d="M5260 7149 c-41 -5 -151 -13 -245 -17 l-170 -7 -3 -537 -2 -538 37 0
c187 1 749 44 765 59 12 11 -141 724 -210 981 l-17 65 -40 1 c-22 1 -74 -2
-115 -7z"/>
<path d="M688 6977 c-76 -132 -126 -248 -148 -342 -12 -47 -19 -92 -17 -98 3
-11 65 88 146 235 35 63 43 91 56 178 8 58 13 105 12 107 -1 1 -24 -35 -49
-80z"/>
<path d="M8900 6968 c1 -45 118 -218 148 -218 9 0 9 5 2 18 -5 9 -23 46 -39
82 -15 36 -40 80 -55 98 -28 32 -56 42 -56 20z"/>
<path d="M8545 6809 c-21 -40 -34 -78 -30 -87 3 -9 45 -76 92 -150 59 -91 91
-131 101 -127 7 3 22 5 32 5 19 0 36 33 31 60 -4 22 -172 359 -182 366 -5 2
-25 -27 -44 -67z"/>
<path d="M7597 6854 c-14 -14 -7 -35 11 -32 9 2 17 10 17 17 0 16 -18 25 -28
15z"/>
<path d="M7649 6781 c-13 -11 -22 -21 -19 -23 16 -14 140 -78 140 -73 0 10
-82 115 -90 115 -4 0 -18 -9 -31 -19z"/>
<path d="M634 6602 c-125 -195 -128 -203 -121 -292 9 -107 94 -410 116 -410 3
0 55 93 114 206 l109 206 -25 57 c-30 69 -59 158 -87 271 -12 47 -22 86 -23
87 -1 1 -39 -56 -83 -125z"/>
<path d="M7538 6653 c-9 -10 -19 -34 -23 -53 -13 -61 -34 -89 -85 -115 -28
-14 -50 -28 -50 -30 0 -3 9 -22 20 -42 25 -47 25 -78 1 -125 -37 -73 -35 -84
40 -243 38 -82 71 -151 74 -153 2 -2 41 28 87 68 46 39 110 88 142 108 33 21
77 56 99 80 48 50 81 56 92 15 3 -16 20 -42 37 -60 26 -27 32 -43 37 -95 5
-52 9 -63 26 -67 24 -4 185 29 185 39 0 17 -171 296 -192 313 -12 10 -30 16
-41 13 -22 -5 -35 20 -18 37 6 6 11 18 11 27 0 23 -107 178 -127 183 -10 3
-53 13 -96 22 -55 12 -88 25 -110 44 -34 30 -70 51 -85 51 -5 0 -16 -8 -24
-17z m108 -119 c17 -40 15 -48 -10 -38 -18 7 -32 47 -21 63 10 17 15 13 31
-25z m70 -106 c9 -18 28 -48 42 -67 21 -28 23 -37 13 -53 -6 -10 -9 -23 -6
-28 9 -15 -11 -12 -23 3 -5 6 -13 23 -17 37 -4 14 -18 38 -31 53 -27 32 -33
87 -9 87 8 0 22 -15 31 -32z m-200 -237 c-10 -16 -36 -13 -36 3 0 17 21 27 34
16 4 -5 5 -13 2 -19z"/>
<path d="M997 6437 c-42 -68 -77 -128 -77 -133 0 -5 15 -34 34 -64 24 -37 36
-50 40 -40 37 106 93 346 84 356 -2 2 -39 -52 -81 -119z"/>
<path d="M3683 6501 c-12 -15 -39 -33 -60 -39 -21 -6 -47 -18 -58 -26 -20 -15
-20 -15 2 -16 13 0 59 7 103 16 94 19 113 15 108 -23 -3 -25 -8 -29 -45 -34
-52 -7 -62 -15 -30 -23 32 -8 40 -31 27 -72 -12 -37 2 -81 30 -95 8 -4 43 -21
78 -38 34 -17 72 -31 85 -30 l22 0 -22 11 c-27 13 -29 30 -7 49 27 22 44 66
64 165 26 124 26 137 0 129 -27 -8 -83 11 -105 35 -15 17 -31 20 -94 19 -71 0
-77 -2 -98 -28z m141 -252 c10 -17 28 -34 39 -39 21 -8 21 -8 -6 -15 -39 -10
-77 17 -77 55 0 39 21 39 44 -1z"/>
<path d="M408 6341 c-20 -61 -34 -111 -31 -111 2 0 20 34 39 76 24 52 34 86
32 111 -3 31 -8 21 -40 -76z"/>
<path d="M7098 6440 c-34 -20 -246 -102 -401 -155 -87 -30 -164 -58 -171 -62
-10 -6 28 -137 156 -543 93 -294 172 -543 176 -552 6 -15 20 -13 141 27 74 24
138 50 142 57 5 7 9 56 9 108 0 93 1 96 37 148 31 46 37 63 43 131 4 43 10 83
14 89 4 7 30 12 57 12 63 0 111 20 149 62 37 40 37 65 1 143 l-27 60 -12 -47
c-12 -45 -49 -88 -78 -88 -18 0 -74 -49 -74 -65 0 -26 -20 -26 -63 -1 -53 32
-95 33 -131 5 -15 -12 -28 -20 -30 -18 -2 2 -11 27 -20 54 -11 34 -25 55 -44
66 -23 13 -29 27 -45 100 -9 46 -31 113 -48 148 -37 76 -40 108 -9 133 12 10
81 37 154 60 72 22 132 42 133 42 4 3 -32 96 -37 96 -3 0 -13 -5 -22 -10z"/>
<path d="M8862 6322 c47 -66 203 -250 208 -247 15 9 31 114 21 134 -13 23
-198 131 -225 131 -15 0 -15 -3 -4 -18z"/>
<path d="M427 6208 c-14 -35 -42 -99 -61 -143 -48 -109 -61 -198 -46 -322 14
-116 50 -259 83 -334 21 -46 26 -51 32 -34 67 169 165 430 165 438 0 7 -21 64
-46 127 -25 63 -58 164 -73 223 l-27 108 -27 -63z"/>
<path d="M846 6188 c-19 -35 -67 -129 -106 -209 -54 -109 -70 -152 -65 -169 8
-24 173 -248 200 -270 16 -14 17 -10 12 55 -4 55 1 90 20 165 19 72 24 108 19
152 -5 53 -3 60 20 83 40 40 31 109 -24 193 l-41 63 -35 -63z"/>
<path d="M1057 6218 c-28 -67 -29 -78 -12 -105 l18 -26 13 24 c15 27 18 107 5
128 -7 11 -13 6 -24 -21z"/>
<path d="M6215 6149 c-115 -26 -274 -59 -353 -73 -79 -13 -145 -26 -147 -28
-5 -4 171 -1128 178 -1134 6 -7 293 40 477 77 123 26 420 97 427 103 2 1 -18
74 -43 162 -127 447 -294 945 -317 943 -7 -1 -106 -23 -222 -50z"/>
<path d="M3505 6108 c-16 -5 -43 -14 -60 -20 -16 -6 -44 -13 -62 -15 -38 -6
-46 -15 -63 -66 -10 -33 -10 -41 4 -56 16 -17 12 -18 -76 -24 -122 -7 -142
-16 -166 -70 -11 -25 -25 -47 -30 -51 -19 -11 -230 -701 -219 -712 27 -27 885
-200 903 -181 2 2 20 103 39 223 97 613 143 919 141 922 -2 2 -45 8 -96 15
l-91 11 -40 -43 c-33 -35 -42 -41 -54 -31 -20 17 -19 33 5 63 l20 25 -32 11
c-37 13 -81 13 -123 -1z"/>
<path d="M9134 6067 l-17 -35 36 -31 c25 -22 38 -45 46 -79 7 -28 32 -75 63
-117 44 -60 52 -67 59 -50 16 43 9 91 -19 131 -15 21 -49 74 -76 116 -64 104
-71 109 -92 65z"/>
<path d="M995 6003 c-4 -37 -19 -124 -33 -193 -20 -91 -27 -154 -27 -232 l0
-107 45 -46 c43 -44 45 -45 52 -23 12 42 8 114 -8 162 -14 39 -14 54 -4 94 7
26 14 121 17 212 5 157 5 166 -15 183 -20 18 -20 18 -27 -50z"/>
<path d="M3954 5994 c-4 -27 -44 -283 -89 -569 -45 -286 -82 -521 -81 -522 1
-2 90 -11 197 -22 238 -25 510 -41 675 -41 l124 0 0 574 0 574 -82 6 c-46 3
-195 12 -333 21 -137 9 -285 18 -327 22 l-76 6 -8 -49z"/>
<path d="M5475 6024 c-105 -11 -505 -34 -601 -34 l-34 0 0 -575 0 -575 133 0
c199 0 534 22 775 51 81 10 92 14 92 31 0 11 -38 262 -85 558 -47 296 -85 543
-85 549 0 13 -38 13 -195 -5z"/>
<path d="M2914 5795 c-8 -20 -19 -33 -25 -29 -7 4 -8 -6 -4 -28 3 -19 0 -43
-8 -58 -11 -21 -10 -30 1 -53 36 -72 -50 -154 -213 -202 -134 -39 -170 -58
-209 -112 -41 -56 -44 -78 -13 -94 40 -22 322 -108 329 -101 3 4 42 131 86
282 76 263 78 275 59 283 -21 8 -21 14 12 95 11 29 16 52 10 52 -5 0 -17 -16
-25 -35z"/>
<path d="M231 5673 c-49 -185 -75 -462 -75 -803 0 -254 1 -269 26 -360 14 -52
35 -115 45 -139 l19 -44 18 174 c23 225 48 374 100 584 38 152 41 174 29 200
-34 79 -106 319 -116 388 -6 42 -14 77 -18 77 -4 0 -16 -35 -28 -77z"/>
<path d="M592 5648 c-22 -57 -62 -163 -87 -235 l-46 -133 32 -47 c90 -133 359
-447 372 -433 7 8 157 470 157 484 0 7 -63 84 -139 170 -76 87 -161 188 -187
226 -27 38 -52 69 -55 70 -3 0 -25 -46 -47 -102z"/>
<path d="M9377 5687 c-10 -27 -9 -65 4 -72 18 -11 21 1 12 47 -7 32 -11 38
-16 25z"/>
<path d="M1680 5464 c-19 -7 -56 -13 -81 -13 -26 -1 -52 -7 -58 -14 -6 -8 -20
-43 -31 -79 -11 -35 -31 -80 -44 -99 -46 -62 -67 -110 -64 -141 3 -27 17 -38
167 -124 90 -52 167 -91 171 -87 10 10 163 473 159 477 -11 10 -119 67 -149
79 -29 12 -41 12 -70 1z"/>
<path d="M2092 5372 c-9 -6 -5 -12 14 -21 31 -14 42 -8 24 14 -14 17 -20 18
-38 7z"/>
<path d="M1876 5125 c-44 -128 -76 -239 -74 -247 9 -21 356 -166 606 -252 123
-43 226 -76 228 -73 5 4 124 501 121 503 -1 1 -74 25 -162 54 -88 29 -165 55
-172 57 -8 3 -12 -34 -15 -129 -3 -118 -6 -139 -28 -183 -22 -43 -29 -50 -55
-50 l-30 0 -8 140 c-5 88 -4 155 2 180 15 60 5 83 -48 109 -42 22 -211 95
-265 115 -21 9 -25 0 -100 -224z"/>
<path d="M422 5125 c-53 -180 -97 -478 -125 -853 -4 -48 -1 -59 36 -115 55
-85 231 -307 310 -392 l66 -70 1 80 c1 192 47 544 104 800 l31 140 -125 138
c-69 77 -149 171 -178 210 -29 40 -63 86 -76 102 l-23 30 -21 -70z"/>
<path d="M7015 5103 c-77 -25 -141 -46 -142 -48 -5 -3 72 -315 77 -315 3 0 11
21 18 46 20 75 58 147 122 230 54 69 80 118 69 129 -3 2 -67 -17 -144 -42z"/>
<path d="M1368 4993 c-10 -96 0 -227 22 -286 26 -70 58 -97 115 -97 28 0 51
-7 68 -21 42 -32 59 -14 107 114 23 63 40 122 39 132 -3 11 -69 53 -173 111
-92 52 -169 94 -171 94 -1 0 -4 -21 -7 -47z"/>
<path d="M2805 5008 c-3 -13 -29 -123 -59 -246 -29 -122 -50 -224 -46 -227 17
-11 356 -91 530 -125 197 -39 428 -76 434 -69 5 5 56 446 56 480 0 25 -3 26
-152 53 -300 55 -515 98 -630 127 -64 16 -119 29 -122 29 -3 0 -8 -10 -11 -22z"/>
<path d="M6515 4970 c-154 -33 -352 -71 -440 -85 -88 -15 -165 -28 -171 -30
-7 -2 -2 -78 17 -242 16 -131 28 -246 29 -257 0 -17 6 -18 68 -11 151 15 582
104 797 164 59 16 109 32 111 34 2 2 -21 110 -51 240 -30 130 -55 239 -55 242
0 8 -11 6 -305 -55z"/>
<path d="M951 4897 c-17 -61 -31 -122 -31 -134 0 -13 17 -36 43 -58 68 -60
472 -326 476 -314 6 19 -62 81 -115 105 -32 14 -65 40 -87 66 -76 94 -178 272
-222 391 -10 26 -21 50 -25 52 -4 3 -22 -46 -39 -108z"/>
<path d="M5760 4839 c-131 -17 -409 -39 -570 -44 -91 -3 -207 -8 -257 -11
l-93 -6 0 -254 c0 -219 2 -255 15 -260 46 -18 1030 48 1052 70 2 2 -39 376
-52 474 -4 24 -11 41 -18 41 -7 -1 -41 -5 -77 -10z"/>
<path d="M3776 4808 c-11 -66 -57 -471 -53 -474 15 -15 555 -59 860 -70 163
-5 197 -4 197 7 2 90 -2 504 -5 507 -2 2 -122 8 -267 13 -145 4 -299 11 -343
14 -148 11 -310 25 -347 31 -35 5 -37 4 -42 -28z"/>
<path d="M1776 4808 c-3 -7 -9 -28 -15 -47 -6 -19 -11 -36 -11 -37 0 -2 16 -4
36 -4 45 0 70 -14 88 -48 16 -30 11 -45 -30 -94 -21 -26 -35 -60 -49 -122 -5
-26 -7 -27 -19 -11 -16 23 -23 12 -36 -56 -6 -33 -20 -63 -36 -80 l-25 -26
118 -47 c78 -31 130 -58 153 -81 27 -26 75 -48 216 -99 206 -74 331 -116 349
-116 7 0 21 58 39 163 16 89 30 171 33 182 3 16 -2 22 -19 24 -26 4 -68 4
-113 -1 -37 -4 -41 21 -7 38 36 18 36 21 -7 48 -26 17 -41 34 -41 46 0 13 -17
32 -47 53 -26 17 -55 40 -65 50 -32 31 -170 98 -207 102 -20 1 -40 3 -45 4 -5
1 -2 9 7 19 10 10 17 21 17 24 0 3 -37 22 -82 41 -46 20 -109 47 -141 61 -42
19 -59 23 -61 14z m671 -593 c33 -22 48 -54 28 -61 -27 -11 -64 6 -80 36 -9
17 -20 30 -25 30 -6 0 -10 5 -10 11 0 15 56 4 87 -16z"/>
<path d="M890 4675 c0 -2 -11 -48 -25 -102 -49 -195 -87 -484 -101 -768 l-7
-141 59 -53 c32 -29 121 -95 198 -146 146 -96 448 -276 454 -270 2 2 14 131
28 287 25 304 63 658 71 671 6 11 -50 97 -84 128 -15 14 -64 47 -108 74 -121
73 -310 201 -397 267 -73 55 -88 64 -88 53z"/>
<path d="M2340 4583 c1 -5 28 -28 60 -52 33 -25 85 -73 116 -108 76 -86 83
-85 103 20 l8 47 -54 16 c-29 9 -93 31 -141 50 -98 38 -92 37 -92 27z"/>
<path d="M2671 4418 c-18 -87 -91 -480 -91 -489 0 -10 37 -22 225 -69 270 -67
795 -164 809 -149 7 9 54 554 48 560 -4 4 -43 12 -87 19 -212 32 -667 124
-867 175 -25 6 -27 4 -37 -47z m69 -183 c7 -9 29 -15 54 -15 23 0 58 -9 79
-20 20 -11 42 -20 48 -20 6 0 26 -15 44 -32 19 -18 47 -44 62 -58 l28 -25 -45
-3 c-25 -1 -55 -7 -67 -13 -12 -7 -36 -9 -55 -6 -18 2 -41 1 -50 -4 -16 -8
-40 6 -50 29 -1 5 -34 15 -73 23 -60 12 -70 17 -73 37 -4 26 8 28 49 6 17 -8
38 -13 46 -9 14 5 13 9 -5 28 -24 26 -45 75 -36 88 8 14 30 11 44 -6z m461
-214 c41 -19 42 -20 17 -26 -46 -12 -83 -2 -86 23 -4 28 12 28 69 3z"/>
<path d="M6860 4449 c-84 -34 -504 -119 -765 -155 -71 -10 -131 -19 -133 -20
-3 -2 47 -567 51 -570 10 -10 555 91 779 145 101 24 121 32 147 60 30 32 30
34 32 149 3 125 -1 138 -52 203 -48 61 -52 79 -36 142 16 61 16 61 -23 46z"/>
<path d="M174 4315 c18 -134 60 -404 63 -401 2 1 3 61 4 133 1 105 -2 136 -16
163 -10 19 -26 57 -36 84 -13 35 -18 41 -15 21z"/>
<path d="M3710 4248 c0 -13 -11 -140 -24 -283 -13 -143 -23 -261 -21 -263 23
-25 1083 -97 1116 -76 5 3 9 131 9 285 0 215 -3 281 -12 284 -7 2 -159 11
-338 20 -312 15 -660 40 -707 50 -19 4 -23 1 -23 -17z"/>
<path d="M5755 4249 c-219 -25 -420 -39 -677 -46 -154 -4 -228 -10 -229 -17
-2 -49 3 -561 6 -564 2 -2 129 1 282 7 270 11 523 30 728 54 l100 12 -2 30
c-13 184 -46 531 -52 535 -3 3 -73 -2 -156 -11z"/>
<path d="M1620 4116 c0 -1 -4 -27 -10 -57 -23 -131 -80 -720 -80 -831 l0 -68
58 -29 c104 -53 495 -203 528 -203 42 0 66 14 104 61 26 34 36 39 58 35 20 -4
33 1 50 19 l23 24 -31 32 c-21 20 -30 37 -26 48 4 9 9 48 12 87 5 58 2 81 -15
126 -12 30 -21 67 -21 81 0 23 -25 55 -57 73 -7 4 -28 0 -48 -8 -29 -13 -35
-20 -35 -45 0 -17 -4 -31 -8 -31 -5 0 -53 44 -108 98 -70 68 -107 113 -124
150 -16 36 -28 51 -38 47 -25 -10 -42 15 -42 64 -1 30 -15 83 -43 153 -40 103
-45 109 -95 142 -28 19 -52 34 -52 32z"/>
<path d="M293 3913 c10 -315 58 -516 180 -759 70 -138 162 -270 258 -366 90
-90 113 -105 104 -65 -3 12 -23 117 -45 234 -46 247 -67 396 -76 554 l-7 114
-111 115 c-61 64 -153 171 -205 238 -52 67 -97 122 -99 122 -3 0 -2 -84 1
-187z"/>
<path d="M1990 4027 c0 -12 -11 -72 -25 -132 -15 -64 -22 -122 -19 -139 7 -33
81 -152 113 -180 18 -16 30 -18 88 -12 l68 7 45 -46 c58 -60 93 -78 135 -71
54 11 65 32 86 177 10 74 24 158 30 187 6 30 9 55 7 56 -6 5 -513 176 -520
176 -5 0 -8 -10 -8 -23z"/>
<path d="M2566 3828 c-3 -13 -10 -63 -16 -113 -6 -49 -13 -105 -17 -124 l-6
-34 49 6 c27 3 86 21 132 41 45 19 82 31 82 27 0 -5 -12 -34 -26 -65 -14 -31
-24 -68 -22 -83 3 -24 8 -28 39 -31 30 -3 41 2 58 24 11 15 21 33 21 40 0 23
14 17 83 -36 54 -42 77 -53 138 -66 41 -8 93 -26 115 -39 28 -17 68 -28 121
-34 86 -9 104 -16 176 -68 40 -29 47 -40 47 -68 0 -32 25 -55 40 -38 7 8 33
464 26 470 -2 3 -1022 213 -1032 213 -2 0 -6 -10 -8 -22z"/>
<path d="M6800 3799 c-217 -49 -430 -94 -593 -124 -98 -18 -181 -35 -183 -38
-3 -2 2 -107 11 -233 9 -126 19 -363 22 -527 3 -164 9 -299 12 -302 22 -13
835 152 1039 211 l54 16 -6 71 c-39 486 -59 697 -68 720 -6 16 -27 36 -49 47
-47 24 -53 34 -51 81 2 30 -4 42 -26 58 -15 12 -32 25 -39 31 -15 13 -21 12
-123 -11z"/>
<path d="M8534 3694 c-32 -42 -82 -70 -96 -56 -6 6 -15 21 -22 33 -18 36 -56
53 -100 45 -43 -8 -115 -69 -153 -130 -25 -38 -25 -40 -14 -150 6 -62 11 -140
11 -175 l0 -63 53 29 c28 16 132 76 229 133 136 80 178 110 178 125 0 11 9 52
20 90 33 117 22 155 -45 155 -27 0 -39 -7 -61 -36z"/>
<path d="M3656 3589 c-3 -24 -10 -134 -16 -244 l-11 -200 49 -45 c27 -25 59
-66 72 -90 33 -67 54 -80 131 -80 136 0 250 -41 376 -134 49 -35 125 -124 166
-193 5 -7 -7 -29 -29 -53 -20 -22 -35 -42 -33 -44 2 -2 97 -6 212 -10 l207 -7
0 534 0 534 -182 7 c-335 13 -701 38 -890 62 l-46 6 -6 -43z"/>
<path d="M5919 3626 c-16 -16 -744 -66 -961 -66 l-118 0 0 -529 c0 -309 4
-532 9 -535 13 -9 939 42 1105 61 l59 6 -6 291 c-7 298 -22 630 -33 724 -5 46
-8 52 -28 52 -12 0 -25 -2 -27 -4z"/>
<path d="M770 3540 c0 -140 85 -671 140 -881 12 -42 87 -106 270 -229 139 -93
370 -233 376 -228 2 3 -3 38 -10 79 -32 168 -76 611 -76 765 l0 75 -76 47
c-281 174 -470 295 -536 345 -43 31 -80 57 -83 57 -3 0 -5 -14 -5 -30z"/>
<path d="M7160 3533 c0 -4 9 -100 20 -211 11 -112 23 -271 26 -353 6 -132 9
-149 23 -143 9 3 52 19 96 34 279 97 600 222 706 275 l69 35 0 108 c0 59 -3
131 -6 159 l-7 53 -34 -30 c-22 -20 -44 -30 -66 -30 -19 0 -50 -12 -77 -31
-25 -16 -67 -42 -95 -56 -27 -14 -65 -39 -84 -56 -33 -28 -38 -29 -105 -24
-58 4 -82 12 -130 41 -32 19 -90 47 -128 62 -63 24 -71 30 -88 69 -17 40 -45
66 -97 94 -13 6 -23 8 -23 4z"/>
<path d="M8570 3374 c-58 -41 -291 -188 -356 -224 l-60 -34 -12 -243 c-13
-250 -33 -453 -58 -582 -7 -41 -11 -77 -9 -80 9 -9 148 70 290 164 142 94 314
219 328 239 4 6 5 30 2 52 -5 37 -2 46 28 79 l34 37 -4 116 c-2 65 -4 126 -5
137 -1 11 2 41 6 67 8 45 7 48 -27 80 -19 18 -43 49 -52 68 -10 19 -29 50 -42
68 -16 22 -23 42 -20 58 5 30 1 29 -43 -2z"/>
<path d="M1520 3027 c0 -155 72 -729 106 -848 6 -20 82 -57 319 -156 155 -64
525 -198 525 -189 0 2 -29 52 -65 112 -36 60 -65 116 -65 125 0 8 -14 37 -32
65 -17 27 -44 78 -61 114 -30 67 -71 124 -140 197 -27 28 -44 58 -53 95 l-14
53 35 28 c41 34 42 43 14 97 -18 34 -20 51 -15 96 3 30 5 54 3 54 -2 0 -124
49 -272 110 -149 60 -273 110 -277 110 -5 0 -8 -29 -8 -63z"/>
<path d="M8000 3055 c-126 -54 -507 -200 -657 -251 l-143 -49 0 -155 c0 -207
-25 -524 -56 -722 -5 -32 -3 -38 13 -38 27 0 317 99 483 165 150 59 335 147
358 169 16 16 46 162 67 326 18 143 33 591 19 589 -5 -1 -43 -16 -84 -34z"/>
<path d="M560 2896 c0 -4 28 -64 61 -133 81 -166 196 -337 303 -448 l85 -90
-70 175 -70 175 -119 120 c-66 66 -133 138 -150 160 -38 49 -40 50 -40 41z"/>
<path d="M7025 2710 c-203 -59 -653 -153 -864 -181 l-90 -13 -5 -40 c-7 -56
-34 -870 -29 -875 9 -11 488 77 768 140 205 47 265 67 274 92 19 48 58 460 66
688 3 90 8 176 10 192 6 34 0 34 -130 -3z"/>
<path d="M954 2503 c26 -82 159 -364 183 -388 59 -61 535 -376 548 -363 2 2
-11 44 -29 93 -19 50 -44 133 -57 185 l-23 96 -80 43 c-114 61 -406 244 -483
302 -41 32 -62 43 -59 32z"/>
<path d="M5820 2484 c-266 -27 -524 -45 -748 -51 l-233 -6 3 -41 c3 -39 5 -42
67 -73 39 -20 79 -33 102 -33 21 0 68 -7 105 -16 36 -8 79 -12 95 -9 22 5 45
-2 96 -31 162 -89 175 -94 227 -94 78 0 90 -13 94 -105 3 -55 0 -88 -13 -120
-16 -44 -65 -95 -89 -95 -25 0 -94 -59 -127 -107 -17 -26 -47 -64 -65 -83 -18
-19 -36 -47 -39 -62 -7 -28 -7 -28 43 -28 94 0 538 40 614 56 34 7 35 13 48
419 5 176 12 359 15 408 l6 87 -38 -1 c-21 -1 -94 -7 -163 -15z"/>
<path d="M8545 2424 c-74 -56 -189 -126 -360 -220 -121 -66 -131 -73 -143
-110 -80 -246 -111 -348 -109 -351 6 -5 252 142 353 212 234 161 266 200 262
317 -3 65 1 81 28 136 17 34 30 62 30 62 -1 0 -28 -21 -61 -46z"/>
<path d="M4323 2415 c12 -41 20 -43 41 -13 25 35 20 48 -18 48 l-34 0 11 -35z"/>
<path d="M4527 2421 c6 -24 -47 -58 -105 -67 -41 -6 -42 -7 -26 -25 31 -34 70
-24 123 31 56 58 70 60 176 30 91 -26 95 -25 95 8 l0 29 -97 6 c-159 11 -172
10 -166 -12z"/>
<path d="M961 2180 c14 -19 63 -86 108 -147 46 -62 85 -113 87 -113 6 0 -54
118 -82 160 -13 20 -50 59 -82 86 -52 44 -55 46 -31 14z"/>
<path d="M7935 2078 c-72 -38 -479 -196 -690 -268 l-110 -38 -31 -123 c-17
-68 -41 -154 -52 -191 -15 -52 -17 -68 -7 -68 43 0 552 189 715 266 l99 47 62
186 c34 102 64 192 67 199 6 17 -6 15 -53 -10z"/>
<path d="M1643 2074 c3 -10 15 -53 26 -94 23 -83 86 -247 104 -269 28 -34 446
-214 664 -285 78 -25 146 -46 151 -46 14 0 -78 362 -96 382 -10 9 -66 33 -127
52 -206 64 -331 112 -714 273 -9 4 -12 0 -8 -13z"/>
<path d="M8315 1918 c-66 -43 -183 -117 -261 -164 l-141 -85 -68 -131 -68
-131 59 33 c245 138 404 255 482 354 63 78 126 181 120 194 -2 5 -57 -27 -123
-70z"/>
<path d="M1226 1918 c66 -131 100 -174 201 -250 87 -65 396 -258 414 -258 4 0
-21 57 -57 126 l-64 127 -148 89 c-81 49 -198 123 -260 164 -62 41 -115 74
-117 74 -3 0 11 -33 31 -72z"/>
<path d="M8458 1910 l-26 -51 25 23 c34 31 47 58 35 70 -5 5 -18 -10 -34 -42z"/>
<path d="M2560 1738 c0 -16 96 -368 102 -373 4 -4 292 -85 303 -85 10 0 5 47
-11 101 -9 30 -36 87 -61 127 -39 63 -54 77 -104 102 -31 16 -61 35 -64 41
-10 15 -140 99 -154 99 -6 0 -11 -6 -11 -12z"/>
<path d="M7029 1746 c-8 -8 -273 -74 -424 -106 -133 -27 -541 -100 -564 -100
-5 0 -14 -44 -20 -97 -7 -54 -19 -140 -27 -192 -8 -52 -13 -95 -12 -97 15 -14
787 148 934 196 l61 21 31 112 c17 61 36 139 42 172 6 33 14 68 16 78 4 12 0
17 -14 17 -10 0 -21 -2 -23 -4z"/>
<path d="M7760 1598 c-116 -53 -431 -175 -591 -228 l-156 -51 -51 -126 c-29
-70 -51 -128 -49 -130 10 -9 539 184 676 248 90 42 92 43 128 108 20 36 53 97
75 135 21 38 37 70 36 71 -2 2 -32 -10 -68 -27z"/>
<path d="M1810 1613 c0 -3 30 -62 66 -129 l66 -123 82 -40 c121 -60 681 -269
692 -259 7 8 -87 233 -104 249 -9 9 -109 46 -222 83 -188 61 -375 133 -522
200 -32 14 -58 23 -58 19z"/>
<path d="M1555 1473 c66 -65 159 -151 206 -191 106 -88 352 -273 357 -267 2 2
-14 25 -35 52 -22 26 -73 94 -112 151 -67 95 -77 105 -140 137 -67 33 -263
149 -351 207 -32 21 -11 -4 75 -89z"/>
<path d="M7934 1437 l-220 -132 -77 -110 c-43 -60 -94 -132 -114 -159 -25 -33
-31 -45 -18 -38 37 20 236 180 363 290 115 100 304 282 292 282 -3 0 -104 -60
-226 -133z"/>
<path d="M5805 1514 c-66 -7 -208 -20 -315 -29 -107 -9 -198 -19 -201 -23 -4
-4 -12 -31 -18 -61 -13 -62 -102 -214 -165 -280 l-41 -43 140 6 c333 16 699
52 714 70 9 10 51 306 51 354 0 25 8 25 -165 6z"/>
<path d="M2699 1253 c10 -26 36 -86 58 -133 l39 -85 86 -23 c47 -12 89 -22 92
-22 11 0 6 149 -6 195 -14 50 0 43 -168 85 -47 12 -93 23 -103 26 -16 5 -16 3
2 -43z"/>
<path d="M6800 1264 c-187 -51 -507 -121 -660 -144 -74 -12 -144 -23 -156 -26
-17 -3 -25 -21 -47 -120 -15 -64 -25 -119 -23 -121 15 -15 537 82 776 145 165
43 142 21 216 198 25 61 38 103 31 103 -7 -1 -68 -17 -137 -35z"/>
<path d="M2006 1252 c77 -123 302 -358 415 -435 66 -45 593 -267 635 -267 2 0
-27 42 -65 93 -37 50 -108 151 -156 222 -48 72 -95 132 -104 134 -91 20 -578
200 -675 248 l-69 35 19 -30z"/>
<path d="M7580 1249 c-151 -69 -523 -207 -646 -238 -37 -10 -46 -19 -91 -93
-67 -109 -153 -228 -220 -305 l-55 -62 84 28 c45 16 139 51 208 79 323 130
362 153 520 311 103 104 267 302 248 301 -2 0 -23 -10 -48 -21z"/>
<path d="M5695 1059 c-136 -16 -325 -28 -718 -45 l-138 -6 3 -117 3 -116 155
3 c298 6 805 43 840 62 10 5 25 46 39 104 12 53 25 105 28 116 7 24 0 24 -212
-1z"/>
<path d="M4700 996 c-88 -36 -138 -65 -148 -82 -5 -9 -6 -32 -2 -50 5 -21 3
-42 -6 -58 l-13 -26 125 0 124 0 0 120 c0 90 -3 120 -12 120 -7 -1 -38 -11
-68 -24z"/>
<path d="M2861 919 c74 -126 189 -279 210 -279 16 0 10 20 -13 43 -17 16 -22
32 -20 56 2 18 -6 60 -17 94 -12 33 -21 68 -21 77 0 12 -21 23 -79 38 -43 12
-81 22 -84 22 -4 0 7 -23 24 -51z"/>
<path d="M6630 929 c-177 -47 -396 -93 -590 -123 l-145 -22 -42 -119 c-24 -66
-62 -159 -86 -207 l-44 -88 31 0 c78 0 395 61 583 112 109 29 115 32 169 87
76 76 294 368 294 393 0 12 -10 10 -170 -33z"/>
<path d="M5675 759 c-186 -22 -466 -39 -641 -39 l-194 0 2 -207 3 -208 120 3
c318 8 648 36 683 58 27 17 87 135 135 264 56 152 55 140 5 139 -24 -1 -74 -5
-113 -10z"/>
<path d="M4333 682 c-45 -21 -95 -50 -111 -65 -48 -46 -94 -46 -180 -2 -55 29
-77 36 -99 30 l-28 -7 25 -16 c14 -9 45 -36 70 -60 43 -41 44 -43 26 -57 -12
-9 -42 -15 -77 -15 l-58 0 32 -56 c18 -31 41 -62 52 -69 28 -19 427 -52 690
-58 l110 -2 3 208 2 207 -187 -1 -188 -1 -82 -36z"/>
<path d="M3130 545 c0 -19 39 -45 67 -45 44 0 23 34 -29 48 -31 8 -38 8 -38
-3z"/>
<path d="M3756 507 c-11 -8 -16 -23 -14 -42 3 -29 1 -30 -39 -33 -41 -3 -54
-14 -33 -27 8 -5 221 -45 242 -45 8 0 -57 118 -79 143 -19 20 -52 22 -77 4z"/>
<path d="M6556 499 c-56 -18 -91 -37 -83 -46 4 -3 147 54 156 62 7 8 -11 4
-73 -16z"/>
<path d="M3021 506 c12 -12 169 -73 169 -66 0 13 -50 45 -89 58 -33 12 -89 17
-80 8z"/>
<path d="M6240 409 c-95 -23 -390 -81 -530 -103 -26 -5 -46 -18 -72 -50 l-37
-43 44 8 c297 56 708 174 731 210 7 13 -6 10 -136 -22z"/>
<path d="M3275 420 c-3 -6 6 -15 20 -20 40 -15 50 -12 30 10 -20 22 -40 26
-50 10z"/>
<path d="M3709 327 c11 -14 11 -20 1 -32 -7 -8 -10 -15 -8 -15 3 0 69 -14 148
-30 79 -17 147 -29 152 -28 5 2 -7 22 -26 44 -34 39 -38 41 -123 53 -48 6
-104 15 -123 18 -32 6 -34 5 -21 -10z"/>
<path d="M4040 278 c0 -15 86 -78 114 -83 55 -10 357 -35 499 -41 l137 -7 0
46 c0 38 -3 47 -17 48 -10 0 -179 10 -376 22 -196 12 -357 19 -357 15z"/>
<path d="M5471 274 c-100 -11 -489 -34 -585 -34 l-36 0 0 -47 0 -46 138 6 c75
4 220 14 322 23 199 17 216 23 260 84 12 17 20 29 18 29 -2 -1 -54 -7 -117
-15z"/>
</g>
</svg>
